<svg width="126" height="16" viewBox="0 0 126 16" fill="none" xmlns="http://www.w3.org/2000/svg">
<path d="M14.0855 7.79047C14.0219 7.62593 13.8756 7.46139 13.6467 7.33482L1.151 0.158253C0.521449 -0.208802 0 0.0886393 0 0.816421V15.1822C0 15.91 0.521449 16.2074 1.151 15.8467L13.6531 8.66381C13.8756 8.53091 14.0219 8.3727 14.0919 8.20816C14.1173 8.13854 14.13 8.06893 14.13 7.99931C14.13 7.9297 14.1173 7.86009 14.0855 7.79047Z" fill="#FDDD2D"/>
<path d="M20.5593 15.8403C20.6675 15.9479 20.7946 15.9985 20.9473 15.9985H23.1539C23.3192 15.9985 23.4591 15.9479 23.5672 15.853C23.6753 15.7517 23.7262 15.6188 23.7262 15.4543V10.1067H27.1029C28.9534 10.1067 30.4097 9.68267 31.4653 8.84097C32.5209 7.99295 33.0487 6.75255 33.0487 5.10713C33.0487 3.44905 32.5209 2.18335 31.4653 1.31001C30.416 0.436669 28.9598 0 27.1093 0H20.9536C20.7819 0 20.6484 0.0506283 20.553 0.158213C20.4512 0.265799 20.4067 0.405027 20.4067 0.569569V15.448C20.4004 15.6062 20.4576 15.7328 20.5593 15.8403ZM23.688 2.56306H26.9948C27.9169 2.56306 28.5973 2.78456 29.0488 3.22756C29.5003 3.67055 29.7292 4.28442 29.7292 5.08182C29.7292 5.89187 29.4939 6.50574 29.0297 6.92342C28.5655 7.34111 27.8851 7.54995 26.9948 7.54995H23.688V2.56306Z" fill="#FDDD2D"/>
<path d="M36.666 15.448C36.666 15.5999 36.7169 15.7327 36.825 15.834C36.9331 15.9416 37.0603 15.9922 37.2129 15.9922H39.3241C39.4958 15.9922 39.6294 15.9416 39.7375 15.834C39.8456 15.7264 39.8965 15.5999 39.8965 15.448V9.96112H43.0442L45.9822 15.3784C46.0903 15.5619 46.2111 15.7074 46.351 15.8214C46.4909 15.9353 46.6817 15.9922 46.9233 15.9922H49.0345C49.1554 15.9922 49.2698 15.9479 49.3652 15.853C49.467 15.7644 49.5178 15.6442 49.5178 15.5113C49.5178 15.4353 49.4924 15.353 49.4479 15.2581L46.1157 9.42952C47.0823 9.09411 47.8327 8.54986 48.3668 7.79676C48.901 7.04366 49.1681 6.10704 49.1681 4.99955C49.1681 3.39843 48.6339 2.16436 47.5719 1.29735C46.5227 0.436669 45.0474 0 43.1651 0H37.2193C37.0476 0 36.914 0.0506283 36.8186 0.158213C36.7169 0.265799 36.6724 0.405027 36.6724 0.569569L36.666 15.448ZM39.9028 2.56306H43.0951C44.0108 2.56306 44.704 2.7719 45.1618 3.18958C45.6197 3.60727 45.8486 4.20848 45.8486 4.98056C45.8486 5.75897 45.6197 6.34753 45.1618 6.75255C44.704 7.15758 44.0108 7.36009 43.0951 7.36009H39.9028V2.56306Z" fill="#FDDD2D"/>
<path d="M64.463 13.3469H56.7493V9.20803H63.7762C63.9415 9.20803 64.0814 9.1574 64.1895 9.06247C64.2976 8.96121 64.3485 8.82831 64.3485 8.66377V7.22086C64.3485 7.05632 64.2976 6.91709 64.1895 6.80951C64.0814 6.70192 63.9415 6.6513 63.7762 6.6513H56.7493V2.65166H64.2849C64.4503 2.65166 64.5902 2.60103 64.6983 2.5061C64.8064 2.40485 64.8572 2.27195 64.8572 2.1074V0.569569C64.8572 0.405027 64.8064 0.265799 64.6983 0.158213C64.5838 0.0506283 64.4439 0 64.2786 0H54.1484C53.9768 0 53.8432 0.0506283 53.7478 0.158213C53.6461 0.265799 53.6016 0.405027 53.6016 0.569569V15.448C53.6016 15.5999 53.6524 15.7327 53.7605 15.834C53.8686 15.9416 53.9958 15.9922 54.1484 15.9922H64.463C64.6283 15.9922 64.7682 15.9416 64.8763 15.8467C64.9844 15.7454 65.0353 15.6125 65.0353 15.448V13.8911C65.0353 13.7266 64.9781 13.5874 64.8763 13.4924C64.7682 13.3975 64.6283 13.3469 64.463 13.3469Z" fill="#FDDD2D"/>
<path d="M83.7757 0H81.9379C81.6454 0 81.4164 0.145556 81.2511 0.436669L76.8188 8.61947L72.3865 0.436669C72.2148 0.145556 71.9858 0 71.6933 0H69.8301C69.6584 0 69.5249 0.0506283 69.4295 0.158213C69.3277 0.265799 69.2832 0.405027 69.2832 0.569569V15.448C69.2832 15.5999 69.3341 15.7327 69.4422 15.834C69.5503 15.9416 69.6775 15.9922 69.8301 15.9922H71.8078C71.9731 15.9922 72.1067 15.9416 72.2084 15.834C72.3102 15.7264 72.3547 15.5999 72.3547 15.448V5.61974L75.547 11.6508C75.7441 11.9863 76.0048 12.1508 76.3291 12.1508H77.2957C77.6328 12.1508 77.8871 11.9863 78.0525 11.6508L81.2447 5.61974V15.448C81.2447 15.5999 81.2956 15.7327 81.4037 15.834C81.5118 15.9416 81.639 15.9922 81.7916 15.9922H83.7693C83.9347 15.9922 84.0746 15.9416 84.1827 15.8467C84.2908 15.7454 84.3417 15.6125 84.3417 15.448V0.569569C84.3417 0.405027 84.2844 0.265799 84.1827 0.158213C84.0809 0.0506283 83.941 0 83.7757 0Z" fill="#FDDD2D"/>
<path d="M92.0621 0H89.8555C89.7029 0 89.5693 0.0506283 89.4676 0.145556C89.3595 0.246813 89.3086 0.379712 89.3086 0.544254V15.448C89.3086 15.5999 89.3595 15.7327 89.4676 15.834C89.5757 15.9416 89.7029 15.9922 89.8555 15.9922H92.0621C92.2274 15.9922 92.3673 15.9416 92.4627 15.834C92.5645 15.7264 92.6153 15.5999 92.6153 15.448V0.544254C92.6153 0.379712 92.5645 0.240485 92.4627 0.145556C92.3673 0.0506283 92.2274 0 92.0621 0Z" fill="#FDDD2D"/>
<path d="M108.449 13.3469H100.736V9.20803H107.763C107.928 9.20803 108.068 9.1574 108.176 9.06247C108.284 8.96121 108.335 8.82831 108.335 8.66377V7.22086C108.335 7.05632 108.284 6.91709 108.176 6.80951C108.068 6.70192 107.928 6.6513 107.763 6.6513H100.736V2.65166H108.271C108.437 2.65166 108.576 2.60103 108.685 2.5061C108.793 2.40485 108.844 2.27195 108.844 2.1074V0.569569C108.844 0.405027 108.793 0.265799 108.685 0.158213C108.57 0.0506283 108.43 0 108.265 0H98.1348C97.9631 0 97.8295 0.0506283 97.7341 0.158213C97.6324 0.265799 97.5879 0.405027 97.5879 0.569569V15.448C97.5879 15.5999 97.6388 15.7327 97.7469 15.834C97.855 15.9416 97.9822 15.9922 98.1348 15.9922H108.449C108.615 15.9922 108.755 15.9416 108.863 15.8467C108.971 15.7454 109.022 15.6125 109.022 15.448V13.8911C109.022 13.7266 108.964 13.5874 108.863 13.4924C108.755 13.3975 108.615 13.3469 108.449 13.3469Z" fill="#FDDD2D"/>
<path d="M113.308 15.8403C113.416 15.9479 113.543 15.9985 113.696 15.9985H115.807C115.979 15.9985 116.112 15.9479 116.22 15.8403C116.328 15.7328 116.379 15.6062 116.379 15.4543V9.96745H119.527L122.465 15.3847C122.573 15.5682 122.694 15.7138 122.834 15.8277C122.974 15.9416 123.165 15.9985 123.406 15.9985H125.517C125.638 15.9985 125.753 15.9542 125.848 15.8593C125.95 15.7707 126.001 15.6505 126.001 15.5176C126.001 15.4416 125.975 15.3594 125.931 15.2644L122.599 9.43585C123.565 9.10044 124.316 8.55619 124.85 7.80309C125.384 7.04999 125.651 6.11337 125.651 5.00588C125.651 3.40475 125.117 2.17069 124.055 1.30368C122.999 0.436669 121.524 0 119.642 0H113.696C113.524 0 113.391 0.0506283 113.295 0.158213C113.193 0.265799 113.149 0.405027 113.149 0.569569V15.448C113.143 15.6062 113.2 15.7328 113.308 15.8403ZM119.572 2.55673C120.487 2.55673 121.181 2.76557 121.638 3.18326C122.096 3.60094 122.325 4.20215 122.325 4.97423C122.325 5.75264 122.096 6.3412 121.638 6.74622C121.181 7.15125 120.487 7.35376 119.572 7.35376H116.379V2.55673H119.572Z" fill="#FDDD2D"/>
</svg>
